<svg width="340" height="320" viewBox="0 0 320 320" fill="none" xmlns="http://www.w3.org/2000/svg">
  <defs id="SvgjsDefs1103"></defs>
  <g id="SvgjsG1104" featurekey="root" fill="#0c4767"></g>
  <g id="SvgjsG1105" featurekey="container1" fill="#e21235"
     transform="matrix(1.468083805207991,0,0,1.468083805207991,20,5)">
    <defs xmlns="http://www.w3.org/2000/svg"></defs>
    <g xmlns="http://www.w3.org/2000/svg">
      <path
        d="M102.174,199.588c53.8,0,97.413-43.613,97.413-97.413S155.974,4.762,102.174,4.762S4.761,48.375,4.761,102.175    S48.375,199.588,102.174,199.588z M102.174,9.762c50.957,0,92.413,41.457,92.413,92.413s-41.456,92.413-92.413,92.413    c-50.957,0-92.413-41.457-92.413-92.413S51.218,9.762,102.174,9.762z"></path>
      <path
        d="M102.174,191.585c49.38,0,89.41-40.03,89.41-89.41s-40.03-89.41-89.41-89.41c-49.38,0-89.41,40.03-89.41,89.41    S52.794,191.585,102.174,191.585z M102.174,14.765c48.198,0,87.41,39.212,87.41,87.41s-39.212,87.41-87.41,87.41    c-48.198,0-87.41-39.212-87.41-87.41S53.976,14.765,102.174,14.765z"></path>
      <path
        d="M102.174,204.35c56.339,0,102.174-45.835,102.174-102.175S158.513,0,102.174,0C45.835,0,0,45.835,0,102.175    S45.835,204.35,102.174,204.35z M102.174,2c55.236,0,100.174,44.938,100.174,100.175S157.411,202.35,102.174,202.35    C46.938,202.35,2,157.411,2,102.175S46.938,2,102.174,2z"></path>
    </g>
  </g>
  <g id="SvgjsG1106" featurekey="symbol1" fill="#ffffff"
     transform="matrix(0.8353221652839983,0,0,0.8353221652839983,128.2338901425495,61.89976159508601)">
    <g id="SvgjsG1107">
      <path xmlns="http://www.w3.org/2000/svg"
            d="M50,91.5C26.9,91.5,8.1,72.9,8.1,50C8.1,27.1,26.9,8.5,50,8.5S91.9,27.1,91.9,50C91.9,72.9,73.1,91.5,50,91.5z M50,12.5  c-20.9,0-37.9,16.8-37.9,37.4c0,20.7,17,37.5,37.9,37.5S87.9,70.7,87.9,50C87.9,29.3,70.9,12.5,50,12.5z"></path>
    </g>
  </g>
  <g id="SvgjsG1108" featurekey="text1" fill="#ffffff"
     transform="matrix(2.985654594544185,0,0,2.985654594544185,67.61147753448505,152.11631846817443)">
    <path
      d="M4.72 21.78 c0 1.3 -0.64 2.22 -1.86 2.22 l-0.22 0 c-0.44 -0.04 -0.92 -0.28 -1.1 -0.58 l0 3.06 l-0.74 0 l0 -18.18 l0.74 0 l0 0.46 c0.2 -0.32 0.6 -0.54 1.1 -0.56 c0.12 -0.02 0.14 -0.02 0.22 -0.02 c1.24 0.02 1.86 0.94 1.86 2.22 l0 11.38 z M3.96 21.22 l0 -10.26 c0 -1.38 -0.26 -2.02 -1.2 -2.02 c-0.96 0 -1.22 0.62 -1.22 2.02 l0 10.26 c0 1.4 0.26 2.02 1.22 2.02 c0.94 0 1.2 -0.62 1.2 -2.02 z M10.24 8.3 l0 14.68 c0 0.52 0.1 0.86 0.14 1.02 l-0.74 0 s-0.12 -0.3 -0.12 -0.56 c-0.18 0.26 -0.68 0.56 -1.14 0.56 l-0.22 0 c-1.22 0 -1.84 -0.92 -1.84 -2.22 l0 -13.48 l0.74 0 l0 12.92 c0 1.4 0.26 2.02 1.22 2.02 c0.94 0 1.2 -0.62 1.2 -2.02 l0 -12.92 l0.76 0 z M13.840000000000002 8.92 c-0.94 0 -1.2 0.64 -1.2 2.04 l0 1.92 c0 1.3 0.36 1.78 1.46 2.98 c0.92 1.02 1.26 1.48 1.44 1.94 c0.22 0.48 0.26 1.1 0.26 1.9 l0 2.2 c0 1.3 -0.62 2.22 -1.84 2.22 l-0.22 0 c-1.22 0 -1.86 -0.92 -1.86 -2.22 l0 -3.48 l0.76 0 l0 2.92 c0 1.4 0.26 2.02 1.2 2.02 c0.96 0 1.22 -0.62 1.22 -2.02 l0 -1.92 c0 -1.32 -0.36 -1.78 -1.46 -2.98 c-0.98 -1.1 -1.26 -1.46 -1.44 -1.94 c-0.2 -0.48 -0.26 -1.12 -0.28 -1.92 l0 -2.18 c0 -1.3 0.64 -2.22 1.86 -2.22 l0.22 0 c1.22 0 1.84 0.92 1.84 2.22 l0 3.48 l-0.74 0 l0 -2.92 c0 -1.4 -0.26 -2.04 -1.22 -2.04 z M20 8.3 l0 0.76 l-1.3 0 l0 12.16 c0 1.4 0.24 2.02 1.2 2.02 l0.1 0 l0 0.76 l-0.2 0 c-1.24 0 -1.86 -0.92 -1.86 -2.22 l0 -12.72 l-0.54 0 l0 -0.76 l0.54 0 l0 -2.98 l0.76 0 l0 2.98 l1.3 0 z M23.66 8.18 c1.24 0 1.86 0.92 1.86 2.22 l0 11.5 c0 1.3 -0.62 2.22 -1.86 2.22 l-0.2 0 c-1.24 0 -1.86 -0.92 -1.86 -2.22 l0 -11.5 c0 -1.3 0.62 -2.22 1.86 -2.22 l0.2 0 z M23.560000000000002 23.36 c0.96 0 1.2 -0.62 1.2 -2.02 l0 -10.38 c0 -1.4 -0.24 -2.04 -1.2 -2.04 s-1.2 0.64 -1.2 2.04 l0 10.38 c0 1.4 0.24 2.02 1.2 2.02 z M30.240000000000002 8.3 l0.76 0 l0 15.96 c0 1.3 -0.62 2.22 -1.86 2.22 l-0.2 0 l0 -0.76 l0.1 0 c0.94 0 1.18 -0.7 1.18 -1.34 c0 -1.3 -0.32 -1.78 -1.42 -2.98 c-0.94 -1.02 -1.26 -1.48 -1.46 -1.94 c-0.2 -0.48 -0.26 -1.1 -0.26 -1.9 l0 -9.26 l0.76 0 l0 9.54 c0 1.3 0.36 1.78 1.44 2.98 c0.46 0.5 0.76 0.84 0.96 1.12 l0 -13.64 z  M39.36 8.92 c-0.94 0 -1.2 0.64 -1.2 2.04 l0 1.92 c0 1.3 0.36 1.78 1.46 2.98 c0.92 1.02 1.26 1.48 1.44 1.94 c0.22 0.48 0.26 1.1 0.26 1.9 l0 2.2 c0 1.3 -0.62 2.22 -1.84 2.22 l-0.22 0 c-1.22 0 -1.86 -0.92 -1.86 -2.22 l0 -3.48 l0.76 0 l0 2.92 c0 1.4 0.26 2.02 1.2 2.02 c0.96 0 1.22 -0.62 1.22 -2.02 l0 -1.92 c0 -1.32 -0.36 -1.78 -1.46 -2.98 c-0.98 -1.1 -1.26 -1.46 -1.44 -1.94 c-0.2 -0.48 -0.26 -1.12 -0.28 -1.92 l0 -2.18 c0 -1.3 0.64 -2.22 1.86 -2.22 l0.22 0 c1.22 0 1.84 0.92 1.84 2.22 l0 3.48 l-0.74 0 l0 -2.92 c0 -1.4 -0.26 -2.04 -1.22 -2.04 z M45.52 8.3 l0 0.76 l-1.3 0 l0 12.16 c0 1.4 0.24 2.02 1.2 2.02 l0.1 0 l0 0.76 l-0.2 0 c-1.24 0 -1.86 -0.92 -1.86 -2.22 l0 -12.72 l-0.54 0 l0 -0.76 l0.54 0 l0 -2.98 l0.76 0 l0 2.98 l1.3 0 z M51.20000000000001 24 l-0.74 0 s-0.12 -0.3 -0.12 -0.56 c-0.18 0.26 -0.68 0.56 -1.14 0.56 l-0.22 0 c-1.22 0 -1.86 -0.92 -1.86 -2.22 l0 -2.06 c0.02 -0.8 0.06 -1.42 0.28 -1.92 c0.18 -0.44 0.52 -0.92 1.44 -1.94 c1.1 -1.2 1.46 -1.66 1.46 -2.98 l0 -1.92 c0 -1.38 -0.26 -2.02 -1.22 -2.02 c-0.94 0 -1.2 0.62 -1.2 2.02 l0 2.92 l-0.76 0 l0 -3.48 c0 -1.28 0.64 -2.22 1.86 -2.22 l0.22 0 c1.22 0 1.84 0.94 1.84 2.22 l0 12.58 c0 0.52 0.12 0.86 0.16 1.02 z M49.080000000000005 23.24 c0.96 0 1.22 -0.62 1.22 -2.02 l0 -5.88 c-0.22 0.26 -0.52 0.62 -0.96 1.1 c-1.1 1.2 -1.46 1.68 -1.46 3 l0 1.78 c0 1.4 0.26 2.02 1.2 2.02 z M56.620000000000005 19.68 l0 4.32 l-0.76 0 l0 -4.6 c0 -1.2 -0.3 -1.7 -1.2 -2.72 c-0.92 1.02 -1.22 1.5 -1.22 2.72 l0 4.6 l-0.74 0 l0 -18.68 l0.74 0 l0 11.62 c0.22 -0.26 0.52 -0.62 0.96 -1.1 c1.1 -1.2 1.46 -1.68 1.46 -3 l0 -4.54 l0.76 0 l0 4.26 c0 0.8 -0.06 1.42 -0.26 1.92 c-0.18 0.4 -0.46 0.82 -1.2 1.64 c0.74 0.84 1.02 1.24 1.2 1.66 c0.2 0.48 0.26 1.1 0.26 1.9 z M62.30000000000001 24 l-0.74 0 s-0.12 -0.3 -0.12 -0.56 c-0.18 0.26 -0.68 0.56 -1.14 0.56 l-0.22 0 c-1.22 0 -1.86 -0.92 -1.86 -2.22 l0 -2.06 c0.02 -0.8 0.06 -1.42 0.28 -1.92 c0.18 -0.44 0.52 -0.92 1.44 -1.94 c1.1 -1.2 1.46 -1.66 1.46 -2.98 l0 -1.92 c0 -1.38 -0.26 -2.02 -1.22 -2.02 c-0.94 0 -1.2 0.62 -1.2 2.02 l0 2.92 l-0.76 0 l0 -3.48 c0 -1.28 0.64 -2.22 1.86 -2.22 l0.22 0 c1.22 0 1.84 0.94 1.84 2.22 l0 12.58 c0 0.52 0.12 0.86 0.16 1.02 z M60.18000000000001 23.24 c0.96 0 1.22 -0.62 1.22 -2.02 l0 -5.88 c-0.22 0.26 -0.52 0.62 -0.96 1.1 c-1.1 1.2 -1.46 1.68 -1.46 3 l0 1.78 c0 1.4 0.26 2.02 1.2 2.02 z M65.86000000000001 8.18 c1.24 0 1.86 0.94 1.86 2.22 l0 13.6 l-0.76 0 l0 -13.04 c0 -1.38 -0.24 -2.02 -1.2 -2.02 s-1.2 0.62 -1.2 2.02 l0 13.04 l-0.76 0 l0 -15.7 l0.76 0 l0 0.48 c0.18 -0.3 0.64 -0.56 1.1 -0.6 l0.2 0 z"></path>
  </g>
  <!--<g id="SvgjsG1109" featurekey="text3" fill="#ffffff" transform="matrix(1,0,0,1,170,246)">-->
    <!--<path d=""></path>-->
  <!--</g>-->
</svg>
