<!-- Generator: Adobe Illustrator 22.1.0, SVG Export Plug-In . SVG Version: 6.00 Build 0)  -->
<svg version="1.1" id="Layer_1" xmlns="http://www.w3.org/2000/svg" xmlns:xlink="http://www.w3.org/1999/xlink" x="0px" y="0px"
	 viewBox="0 0 340 320" style="enable-background:new 0 0 340 320;" xml:space="preserve">
<style type="text/css">
	.st0{fill:none;stroke:#E21235;stroke-width:7;stroke-miterlimit:10;}
	.st1{fill:none;stroke:#E21235;stroke-width:3;stroke-linecap:round;stroke-miterlimit:10;stroke-dasharray:20,15,30,15;}
	.st2{fill:none;stroke:#E21235;stroke-width:3;stroke-linecap:round;stroke-linejoin:round;stroke-dasharray:12.3536,17.5009,20.5893,17.5009;}
	.st3{fill:#FFFFFF;}
</style>

<circle class="st0" cx="170" cy="155" r="139.4"></circle>
<circle class="st1" cx="170" cy="155" r="148.5">
  <animateTransform  accumulate="none" additive="replace" attributeName="transform" attributeType="xml" begin="0" calcMode="linear" dur="60s" fill="remove" from="0 170.042 154.936" repeatCount="indefinite" restart="always" to="-360 170.042 154.936" type="rotate">
	</animateTransform>
</circle>
<circle class="st2" cx="170" cy="155" r="129.8">
  <animateTransform  accumulate="none" additive="replace" attributeName="transform" attributeType="xml" begin="0" calcMode="linear" dur="40s" fill="remove" from="0 170.042 154.936" repeatCount="indefinite" restart="always" to="360 170.042 154.936" type="rotate">
  </animateTransform>
</circle>

<g>
	<g id="SvgjsG1106" transform="matrix(0.8353221652839983,0,0,0.8353221652839983,128.2338901425495,61.89976159508601)">
		<g id="SvgjsG1107">
			<path class="st3" d="M50,91.5C26.9,91.5,8.1,72.9,8.1,50S26.9,8.5,50,8.5S91.9,27.1,91.9,50S73.1,91.5,50,91.5z M50,12.5
				c-20.9,0-37.9,16.8-37.9,37.4c0,20.7,17,37.5,37.9,37.5S87.9,70.7,87.9,50S70.9,12.5,50,12.5z"/>
		</g>
	</g>
	<g id="SvgjsG1108" transform="matrix(2.985654594544185,0,0,2.985654594544185,67.61147753448505,152.11631846817443)">
		<path class="st3" d="M4.7,21.8c0,1.3-0.6,2.2-1.9,2.2H2.6c-0.4,0-0.9-0.3-1.1-0.6v3.1H0.8V8.3h0.7v0.5c0.2-0.3,0.6-0.5,1.1-0.6
			c0.1,0,0.1,0,0.2,0c1.2,0,1.9,0.9,1.9,2.2V21.8z M4,21.2V11c0-1.4-0.3-2-1.2-2c-1,0-1.2,0.6-1.2,2v10.3c0,1.4,0.3,2,1.2,2
			C3.7,23.2,4,22.6,4,21.2z M10.2,8.3V23c0,0.5,0.1,0.9,0.1,1H9.6c0,0-0.1-0.3-0.1-0.6C9.3,23.7,8.8,24,8.4,24H8.2
			c-1.2,0-1.8-0.9-1.8-2.2V8.3h0.7v12.9c0,1.4,0.3,2,1.2,2s1.2-0.6,1.2-2V8.3C9.5,8.3,10.2,8.3,10.2,8.3z M13.8,8.9
			c-0.9,0-1.2,0.6-1.2,2v1.9c0,1.3,0.4,1.8,1.5,3c0.9,1,1.3,1.5,1.4,1.9c0.2,0.5,0.3,1.1,0.3,1.9v2.2c0,1.3-0.6,2.2-1.8,2.2h-0.2
			c-1.2,0-1.9-0.9-1.9-2.2v-3.5h0.8v2.9c0,1.4,0.3,2,1.2,2c1,0,1.2-0.6,1.2-2v-1.9c0-1.3-0.4-1.8-1.5-3c-1-1.1-1.3-1.5-1.4-1.9
			c-0.2-0.5-0.3-1.1-0.3-1.9v-2.2c0-1.3,0.6-2.2,1.9-2.2H14c1.2,0,1.8,0.9,1.8,2.2v3.5h-0.7V11C15.1,9.6,14.8,8.9,13.8,8.9z M20,8.3
			v0.8h-1.3v12.2c0,1.4,0.2,2,1.2,2H20V24h-0.2c-1.2,0-1.9-0.9-1.9-2.2V9.1h-0.5V8.3h0.5v-3h0.8v3C18.7,8.3,20,8.3,20,8.3z
			 M23.7,8.2c1.2,0,1.9,0.9,1.9,2.2v11.5c0,1.3-0.6,2.2-1.9,2.2h-0.2c-1.2,0-1.9-0.9-1.9-2.2V10.4c0-1.3,0.6-2.2,1.9-2.2H23.7z
			 M23.6,23.4c1,0,1.2-0.6,1.2-2V11c0-1.4-0.2-2-1.2-2s-1.2,0.6-1.2,2v10.4C22.4,22.7,22.6,23.4,23.6,23.4z M30.2,8.3H31v16
			c0,1.3-0.6,2.2-1.9,2.2h-0.2v-0.8H29c0.9,0,1.2-0.7,1.2-1.3c0-1.3-0.3-1.8-1.4-3c-0.9-1-1.3-1.5-1.5-1.9C27.1,19,27,18.4,27,17.6
			V8.3h0.8v9.5c0,1.3,0.4,1.8,1.4,3c0.5,0.5,0.8,0.8,1,1.1V8.3z M39.4,8.9c-0.9,0-1.2,0.6-1.2,2v1.9c0,1.3,0.4,1.8,1.5,3
			c0.9,1,1.3,1.5,1.4,1.9c0.2,0.5,0.3,1.1,0.3,1.9v2.2c0,1.3-0.6,2.2-1.8,2.2h-0.2c-1.2,0-1.9-0.9-1.9-2.2v-3.5h0.8v2.9
			c0,1.4,0.3,2,1.2,2c1,0,1.2-0.6,1.2-2v-1.9c0-1.3-0.4-1.8-1.5-3c-1-1.1-1.3-1.5-1.4-1.9c-0.2-0.5-0.3-1.1-0.3-1.9v-2.2
			c0-1.3,0.6-2.2,1.9-2.2h0.2c1.2,0,1.8,0.9,1.8,2.2v3.5h-0.7V11C40.6,9.6,40.3,8.9,39.4,8.9L39.4,8.9z M45.5,8.3v0.8h-1.3v12.2
			c0,1.4,0.2,2,1.2,2h0.1V24h-0.2c-1.2,0-1.9-0.9-1.9-2.2V9.1h-0.5V8.3h0.5v-3h0.8v3H45.5L45.5,8.3z M51.2,24h-0.7
			c0,0-0.1-0.3-0.1-0.6c-0.2,0.3-0.7,0.6-1.1,0.6H49c-1.2,0-1.9-0.9-1.9-2.2v-2.1c0-0.8,0.1-1.4,0.3-1.9c0.2-0.4,0.5-0.9,1.4-1.9
			c1.1-1.2,1.5-1.7,1.5-3V11c0-1.4-0.3-2-1.2-2s-1.2,0.6-1.2,2v2.9h-0.8v-3.5c0-1.3,0.6-2.2,1.9-2.2h0.2c1.2,0,1.8,0.9,1.8,2.2V23
			C51,23.5,51.2,23.8,51.2,24L51.2,24z M49.1,23.2c1,0,1.2-0.6,1.2-2v-5.9c-0.2,0.3-0.5,0.6-1,1.1c-1.1,1.2-1.5,1.7-1.5,3v1.8
			C47.9,22.6,48.1,23.2,49.1,23.2L49.1,23.2z M56.6,19.7V24h-0.8v-4.6c0-1.2-0.3-1.7-1.2-2.7c-0.9,1-1.2,1.5-1.2,2.7V24h-0.7V5.3
			h0.7v11.6c0.2-0.3,0.5-0.6,1-1.1c1.1-1.2,1.5-1.7,1.5-3V8.3h0.8v4.3c0,0.8-0.1,1.4-0.3,1.9c-0.2,0.4-0.5,0.8-1.2,1.6
			c0.7,0.8,1,1.2,1.2,1.7C56.6,18.3,56.6,18.9,56.6,19.7L56.6,19.7z M62.3,24h-0.7c0,0-0.1-0.3-0.1-0.6c-0.2,0.3-0.7,0.6-1.1,0.6
			h-0.2c-1.2,0-1.9-0.9-1.9-2.2v-2.1c0-0.8,0.1-1.4,0.3-1.9c0.2-0.4,0.5-0.9,1.4-1.9c1.1-1.2,1.5-1.7,1.5-3V11c0-1.4-0.3-2-1.2-2
			s-1.2,0.6-1.2,2v2.9h-0.8v-3.5c0-1.3,0.6-2.2,1.9-2.2h0.2c1.2,0,1.8,0.9,1.8,2.2V23C62.1,23.5,62.3,23.8,62.3,24L62.3,24z
			 M60.2,23.2c1,0,1.2-0.6,1.2-2v-5.9c-0.2,0.3-0.5,0.6-1,1.1c-1.1,1.2-1.5,1.7-1.5,3v1.8C59,22.6,59.2,23.2,60.2,23.2L60.2,23.2z
			 M65.9,8.2c1.2,0,1.9,0.9,1.9,2.2V24H67V11c0-1.4-0.2-2-1.2-2s-1.2,0.6-1.2,2v13h-0.8V8.3h0.8v0.5c0.2-0.3,0.6-0.6,1.1-0.6
			C65.7,8.2,65.9,8.2,65.9,8.2z"/>
	</g>
</g>
</svg>
